# xmcd CD database file
#
# Track frame offsets:
#	150
#	15840
#	39752
#	51150
#	62007
#	75497
#	92807
#	106497
#	124072
#	136182
#	152375
#	165697
#	183255
#	202285
#	218730
#	236362
#	249092
#	264342
#	286715
#	303015
#
# Disc length: 4259 seconds
#
# Revision: 0
# Processed by: cddbd v1.5.2PL0 Copyright (c) Steve Scherf et al.
# Submitted via: CDex 1.70beta2
#
DISCID=f210a114
DTITLE=Verschiedene - Fan Fair ´93 CD 2
DYEAR=1993
DGENRE=Country
TTITLE0=West Forest Country Boys - Mule Skinner Blues
TTITLE1=Appalachian Trail - Riding The Trail
TTITLE2=Original Zitronentaler - I träum von Dir
TTITLE3=Country Rose - Smoking Green Eyes
TTITLE4=Driveway - Sonntagstrucker
TTITLE5=Kaktus - Back On Stage
TTITLE6=Kevin Henderson - Kentucky Bound
TTITLE7=Country Youngster´s and Kevin Henderson - My Home Is Alabama
TTITLE8=Country Rose - One Night Love
TTITLE9=Rebel Yell Band - Jim Bim And A House Full Of Friends
TTITLE10=West Forest Country Boys - Hey Junge
TTITLE11=Country Heart - My Sweet Lady
TTITLE12=West Forest Country Boys - Diesmal
TTITLE13=Country Youngster´s - Arizona
TTITLE14=Appalachian Trail - Kaw Liga
TTITLE15=Driveway - Mein Diesel und ich
TTITLE16=West Forest Country Boys - Rostige Saiten
TTITLE17=Kaktus - White Waters
TTITLE18=Wilbury-Clan - Countrymusic
TTITLE19=Appalachian Trail - Appalachian Trail
EXTD=YEAR: 1993
EXTT0=
EXTT1=
EXTT2=
EXTT3=
EXTT4=
EXTT5=
EXTT6=
EXTT7=
EXTT8=
EXTT9=
EXTT10=
EXTT11=
EXTT12=
EXTT13=
EXTT14=
EXTT15=
EXTT16=
EXTT17=
EXTT18=
EXTT19=
PLAYORDER=
